<?xml version="1.0" encoding="UTF-8" standalone="no"?>
<!DOCTYPE svg PUBLIC "-//W3C//DTD SVG 1.1//EN" "http://www.w3.org/Graphics/SVG/1.1/DTD/svg11.dtd">
<svg version="1.1" xmlns="http://www.w3.org/2000/svg" xmlns:xlink="http://www.w3.org/1999/xlink" preserveAspectRatio="xMidYMid meet" viewBox="168.61671469740656 236.71469740634012 249.85590778097986 176.36887608069168"><defs><path d="M418.47 319.28L418.47 413.08L168.62 413.08L168.62 319.78L176.31 319.78L176.31 306.78L283.31 306.78L283.31 338.28L309.81 338.28L309.81 306.78L410.81 306.78L410.81 319.28L418.47 319.28ZM253.81 411.78L261.81 411.78L261.81 310.28L253.81 310.28L253.81 411.78ZM200.81 411.28L208.81 411.28L208.81 309.78L200.81 309.78L200.81 411.28ZM329.81 410.78L337.81 410.78L337.81 309.28L329.81 309.28L329.81 410.78ZM377.81 410.78L385.81 410.78L385.81 309.28L377.81 309.28L377.81 410.78ZM298.49 310.69L299.64 311.18L300.69 311.83L301.62 312.63L302.42 313.56L303.07 314.61L303.56 315.76L303.86 316.99L303.96 318.28L303.86 319.58L303.56 320.81L303.07 321.96L302.42 323.01L301.62 323.94L300.69 324.74L299.64 325.39L298.71 325.78L298.71 332.28L293.21 332.28L293.21 325.78L292.29 325.39L291.24 324.74L290.31 323.94L289.51 323.01L288.86 321.96L288.37 320.81L288.07 319.58L287.96 318.28L288.07 316.99L288.37 315.76L288.86 314.61L289.51 313.56L290.31 312.63L291.24 311.83L292.29 311.18L293.44 310.69L294.67 310.39L295.96 310.28L297.26 310.39L298.49 310.69ZM410.49 236.92L411.45 237.16L412.37 237.5L413.24 237.92L414.06 238.42L414.83 239L415.54 239.64L416.19 240.35L416.76 241.12L417.27 241.95L417.69 242.82L418.02 243.74L418.27 244.7L418.42 245.69L418.47 246.71L418.47 290.28L410.81 290.28L410.81 301.28L176.31 301.28L176.31 290.78L168.62 290.78L168.62 246.71L168.67 245.69L168.82 244.7L169.07 243.74L169.4 242.82L169.82 241.95L170.32 241.12L170.9 240.35L171.55 239.64L172.26 239L173.03 238.42L173.85 237.92L174.72 237.5L175.64 237.16L176.6 236.92L177.59 236.77L178.62 236.71L408.47 236.71L409.5 236.77L410.49 236.92Z" id="paKYdqGKp1"></path></defs><g visibility="inherit"><g visibility="inherit"><use xlink:href="#paKYdqGKp1" opacity="1" fill="#ffffff" fill-opacity="1"></use></g></g></svg>