<?xml version="1.0" encoding="UTF-8" standalone="no"?>
<!DOCTYPE svg PUBLIC "-//W3C//DTD SVG 1.1//EN" "http://www.w3.org/Graphics/SVG/1.1/DTD/svg11.dtd">
<svg version="1.1" xmlns="http://www.w3.org/2000/svg" xmlns:xlink="http://www.w3.org/1999/xlink" preserveAspectRatio="xMidYMid meet" viewBox="199.41176470588232 136.66666666666663 244.11764705882354 296.07843137254906"><defs><path d="M440.28 272.7L440.55 272.78L440.82 272.89L441.06 273.03L441.29 273.19L441.5 273.37L441.68 273.57L441.84 273.79L441.98 274.03L442.09 274.29L442.17 274.55L442.22 274.83L442.24 275.12L442.22 275.41L424.59 423.04L424.4 424.12L424.11 425.17L423.72 426.17L423.24 427.12L422.67 428.01L422.02 428.85L421.29 429.61L420.49 430.3L419.63 430.92L418.71 431.46L417.74 431.91L416.72 432.27L415.66 432.53L414.56 432.69L413.43 432.75L226.57 432.75L225.45 432.69L224.35 432.53L223.29 432.26L222.28 431.9L221.31 431.45L220.4 430.91L219.54 430.3L218.75 429.6L218.03 428.83L217.39 428L216.83 427.11L216.36 426.16L215.98 425.16L215.7 424.11L215.53 423.02L199.65 274.92L199.64 274.69L199.65 274.46L199.69 274.24L199.76 274.02L199.85 273.82L199.96 273.63L200.09 273.46L200.24 273.29L200.41 273.15L200.59 273.02L200.78 272.91L200.99 272.83L201.21 272.76L201.44 272.73L201.68 272.71L439.69 272.63L439.99 272.65L440.28 272.7ZM316.52 305.6L314.93 306.26L313.49 307.14L312.2 308.21L311.1 309.47L310.2 310.88L309.53 312.43L309.12 314.09L308.97 315.84L309.12 317.58L309.53 319.24L310.2 320.79L311.1 322.2L312.2 323.46L313.49 324.53L314.93 325.41L315.01 325.44L310.75 345.51L329.25 345.51L324.64 325.59L325.07 325.41L326.51 324.53L327.8 323.46L328.9 322.2L329.8 320.79L330.47 319.24L330.88 317.58L331.03 315.84L330.88 314.09L330.47 312.43L329.8 310.88L328.9 309.47L327.8 308.21L326.51 307.14L325.07 306.26L323.48 305.6L321.79 305.2L320 305.05L318.21 305.2L316.52 305.6Z" id="DCUgIaOIbr"></path><path d="M359.04 142.9L375.87 150.07L391.19 159.37L404.85 170.39L416.71 182.7L426.6 195.89L434.38 209.53L439.9 223.2L443 236.49L443.53 248.96L442.87 259.28L442.1 266.67L441.39 268.94L201.25 268.94L200.58 267.54L199.54 259.8L199.41 248.92L200.74 235.89L204.34 222.27L210.09 208.43L217.9 194.78L227.67 181.68L239.29 169.54L252.65 158.74L267.65 149.66L284.19 142.7L302.16 138.24L321.47 136.67L340.86 138.3L359.04 142.9Z" id="ICEgSdsf5x"></path></defs><g visibility="inherit"><g visibility="inherit"><use xlink:href="#DCUgIaOIbr" opacity="1" fill="#ffffff" fill-opacity="1"></use></g><g visibility="inherit"><use xlink:href="#ICEgSdsf5x" opacity="1" fill="#ffffff" fill-opacity="1"></use></g></g></svg>