<?xml version="1.0" encoding="UTF-8" standalone="no"?>
<!DOCTYPE svg PUBLIC "-//W3C//DTD SVG 1.1//EN" "http://www.w3.org/Graphics/SVG/1.1/DTD/svg11.dtd">
<svg version="1.1" xmlns="http://www.w3.org/2000/svg" xmlns:xlink="http://www.w3.org/1999/xlink" preserveAspectRatio="xMidYMid meet" viewBox="210 134.70588235294116 199.9999999999999 377.45098039215696"><defs><path d="M230 340L260 340L260 350L230 350L230 340Z" id="VgqLBZIKI4"></path><path d="M250 360C250 365.52 245.52 370 240 370C234.48 370 230 365.52 230 360C230 354.48 234.48 350 240 350C245.52 350 250 354.48 250 360Z" id="ov91RaqKQ1"></path><path d="M355.47 135.48L360.04 136.42L364.5 137.72L368.82 139.36L372.99 141.32L377.01 143.6L380.86 146.18L384.52 149.04L387.99 152.17L391.26 155.56L394.31 159.19L397.12 163.06L399.69 167.13L402.01 171.42L404.05 175.89L405.82 180.53L407.29 185.34L408.46 190.29L409.31 195.38L409.82 200.59L410 205.9L410 512.16L210 512.16L210 207.15L210.18 201.74L210.71 196.44L211.57 191.27L212.76 186.23L214.25 181.34L216.05 176.61L218.13 172.06L220.49 167.7L223.1 163.55L225.97 159.62L229.07 155.92L232.39 152.48L235.92 149.29L239.65 146.38L243.57 143.76L247.66 141.44L251.91 139.44L256.3 137.77L260.83 136.45L265.48 135.49L270.24 134.9L275.1 134.71L346.02 134.71L350.79 134.9L355.47 135.48ZM260 260L280 260L280 210L290 210L290 260L305 260L305 210L315 210L315 260L330 260L330 210L340 210L340 260L360 260L360 210L260 210L260 260Z" id="udXF9LX5zN"></path></defs><g visibility="inherit"><g visibility="inherit"><use xlink:href="#VgqLBZIKI4" opacity="1" fill="#000000" fill-opacity="1"></use></g><g visibility="inherit"><g><use xlink:href="#ov91RaqKQ1" opacity="1" fill-opacity="0" stroke="#000000" stroke-width="3" stroke-opacity="1"></use></g></g><g visibility="inherit"><use xlink:href="#udXF9LX5zN" opacity="1" fill="#ffffff" fill-opacity="1"></use></g></g></svg>