<?xml version="1.0" encoding="UTF-8" standalone="no"?>
<!DOCTYPE svg PUBLIC "-//W3C//DTD SVG 1.1//EN" "http://www.w3.org/Graphics/SVG/1.1/DTD/svg11.dtd">
<svg version="1.1" xmlns="http://www.w3.org/2000/svg" xmlns:xlink="http://www.w3.org/1999/xlink" preserveAspectRatio="xMidYMid meet" viewBox="188.33333333333337 53.33333333333333 238.88888888888914 280"><defs><path d="M393.44 86.27L422.4 126.27L427.22 160.39L424.81 194.51L404.3 226.27L415.16 242.75L415.16 268.63L400.68 293.33L365.69 292.16L362.07 306.27L353.63 328.63L316.22 333.33L277.62 328.63L270.38 306.27L270.38 289.8L223.32 292.16L208.84 266.27L210.05 236.86L224.53 222.75L197.99 195.69L188.33 154.51L199.19 121.57L223.32 85.1L257.1 63.92L308.98 53.33L354.83 66.27L393.44 86.27ZM306.16 278.88L305.65 279.09L305.17 279.39L304.73 279.79L304.34 280.27L300.44 285.94L303.35 294.73L303.61 295.54L303.84 296.37L304.04 297.2L304.23 298.04L304.38 298.88L304.51 299.73L304.62 300.59L304.7 301.45L304.76 302.31L304.79 303.18L304.93 310.27L305 310.94L305.18 311.55L305.45 312.08L305.8 312.54L306.21 312.91L306.68 313.19L307.18 313.35L307.71 313.39L308.25 313.31L308.79 313.09L311.69 311.49L312.47 310.99L313.2 310.39L313.85 309.71L314.43 308.95L314.94 308.11L315.36 307.22L315.7 306.28L315.94 305.29L316.09 304.26L316.14 303.21L316.12 295.12L316.05 293.45L315.86 291.81L315.55 290.2L315.12 288.64L314.58 287.12L313.92 285.67L313.16 284.29L312.3 282.99L311.34 281.78L310.28 280.67L309.26 279.68L308.79 279.29L308.29 279.01L307.76 278.83L307.23 278.75L306.69 278.77L306.16 278.88ZM325.8 278.51L325.29 278.79L324.83 279.18L323.8 280.17L322.74 281.28L321.78 282.49L320.92 283.79L320.16 285.17L319.51 286.62L318.97 288.14L318.54 289.7L318.23 291.31L318.03 292.95L317.97 294.62L317.95 302.71L318 303.76L318.14 304.79L318.39 305.78L318.72 306.72L319.15 307.61L319.65 308.45L320.23 309.21L320.89 309.89L321.61 310.49L322.4 310.99L325.29 312.59L325.83 312.81L326.37 312.89L326.9 312.85L327.41 312.69L327.87 312.41L328.29 312.04L328.64 311.58L328.91 311.05L329.08 310.44L329.15 309.77L329.3 302.68L329.33 301.81L329.38 300.95L329.46 300.09L329.57 299.23L329.7 298.38L329.86 297.54L330.04 296.7L330.25 295.87L330.48 295.04L330.73 294.23L333.64 285.44L329.75 279.77L329.35 279.29L328.91 278.89L328.43 278.59L327.92 278.38L327.39 278.27L326.85 278.25L326.32 278.33L325.8 278.51ZM346.22 208.83L343.45 209.3L342.04 209.64L341.39 209.84L339.36 210.62L337.4 211.51L335.52 212.52L333.72 213.64L332.01 214.86L330.39 216.19L328.88 217.62L327.48 219.14L326.18 220.75L317.37 232.59L316.59 233.8L316.01 235.07L315.63 236.38L315.45 237.72L315.46 239.06L315.66 240.38L316.05 241.68L316.64 242.93L317.41 244.11L318.37 245.21L340.93 267.78L381.19 264.77L383.05 263.79L384.77 262.71L386.34 261.53L387.78 260.27L389.07 258.92L390.22 257.47L391.22 255.93L392.08 254.3L392.8 252.58L393.38 250.77L393.81 248.87L394.11 246.87L394.25 244.79L394.26 242.61L394.12 240.34L393.84 237.98L393.42 235.53L392.85 232.99L392.15 230.35L391.3 227.63L376.15 215.23L368.15 211.78L365.54 210.77L362.88 209.94L360.16 209.29L357.4 208.83L354.62 208.55L351.82 208.46L349.02 208.55L346.22 208.83ZM270.01 206.61L267.25 207.07L264.53 207.72L261.86 208.55L259.26 209.56L251.25 213L236.11 225.41L235.26 228.13L234.55 230.77L233.99 233.31L233.56 235.76L233.28 238.12L233.15 240.39L233.15 242.57L233.3 244.65L233.59 246.65L234.03 248.55L234.6 250.36L235.32 252.08L236.19 253.71L237.19 255.25L238.34 256.69L239.63 258.05L241.06 259.31L242.64 260.48L244.36 261.56L246.22 262.55L286.48 265.56L309.04 242.99L310 241.89L310.77 240.71L311.35 239.46L311.75 238.16L311.95 236.83L311.96 235.49L311.77 234.16L311.39 232.85L310.82 231.58L310.04 230.37L301.22 218.53L299.93 216.92L298.53 215.4L297.01 213.97L295.4 212.64L293.69 211.42L291.89 210.3L290.01 209.29L288.05 208.4L286.02 207.62L285.36 207.42L283.96 207.08L281.19 206.61L278.39 206.33L275.59 206.24L272.79 206.33L270.01 206.61ZM342.04 209.64L343.48 209.19L340.7 209.96L342.04 209.64ZM286.7 207.74L283.93 206.97L285.36 207.42L286.7 207.74Z" id="nlbqfdjunA"></path></defs><g visibility="inherit"><g visibility="inherit"><use xlink:href="#nlbqfdjunA" opacity="1" fill="#ffffff" fill-opacity="1"></use><g><use xlink:href="#nlbqfdjunA" opacity="1" fill-opacity="0" stroke="#ffffff" stroke-width="1" stroke-opacity="1"></use></g></g></g></svg>