<?xml version="1.0" encoding="UTF-8" standalone="no"?>
<!DOCTYPE svg PUBLIC "-//W3C//DTD SVG 1.1//EN" "http://www.w3.org/Graphics/SVG/1.1/DTD/svg11.dtd">
<svg version="1.1" xmlns="http://www.w3.org/2000/svg" xmlns:xlink="http://www.w3.org/1999/xlink" preserveAspectRatio="xMidYMid meet" viewBox="289.3482248260142 282.3878196585571 83.01300440317243 161.76893165746412"><defs><path d="M372.36 316.44C372.36 316.44 372.36 316.44 372.36 316.44C372.36 326.66 372.36 332.34 372.36 333.47C372.36 333.47 372.36 333.47 372.36 333.47C322.55 333.47 294.88 333.47 289.35 333.47C289.35 333.47 289.35 333.47 289.35 333.47C289.35 323.26 289.35 317.58 289.35 316.44C289.35 316.44 289.35 316.44 289.35 316.44C339.16 316.44 366.83 316.44 372.36 316.44Z" id="DgTvCEs6I4"></path><path d="M367.04 395.2C367.04 395.2 367.04 395.2 367.04 395.2C367.04 404.78 367.04 410.1 367.04 411.16C367.04 411.16 367.04 411.16 367.04 411.16C326.17 411.16 303.47 411.16 298.93 411.16C298.93 411.16 298.93 411.16 298.93 411.16C298.93 401.59 298.93 396.26 298.93 395.2C298.93 395.2 298.93 395.2 298.93 395.2C339.79 395.2 362.5 395.2 367.04 395.2Z" id="fm9sxwGnMk"></path><path d="M293.61 282.39L368.1 282.39L345.75 444.16L323.4 443.09L293.61 282.39Z" id="B5lGp3u4an"></path></defs><g visibility="inherit"><g visibility="inherit"><use xlink:href="#DgTvCEs6I4" opacity="1" fill="#ffffff" fill-opacity="1"></use><g><use xlink:href="#DgTvCEs6I4" opacity="1" fill-opacity="0" stroke="#000000" stroke-width="1" stroke-opacity="0"></use></g></g><g visibility="inherit"><use xlink:href="#fm9sxwGnMk" opacity="1" fill="#ffffff" fill-opacity="1"></use><g><use xlink:href="#fm9sxwGnMk" opacity="1" fill-opacity="0" stroke="#000000" stroke-width="1" stroke-opacity="0"></use></g></g><g visibility="inherit"><use xlink:href="#B5lGp3u4an" opacity="1" fill="#ffffff" fill-opacity="1"></use><g><use xlink:href="#B5lGp3u4an" opacity="1" fill-opacity="0" stroke="#ffffff" stroke-width="1" stroke-opacity="1"></use></g></g><path visibility="inherit"></path></g></svg>